<?xml version="1.0" encoding="utf-8"?>
<!-- Generator: Adobe Illustrator 26.2.1, SVG Export Plug-In . SVG Version: 6.00 Build 0)  -->
<svg version="1.1" id="Layer_1" xmlns="http://www.w3.org/2000/svg" xmlns:xlink="http://www.w3.org/1999/xlink" x="0px" y="0px"
	 width="490px" height="210px" viewBox="0 0 490 210" style="enable-background:new 0 0 490 210;" xml:space="preserve">
<style type="text/css">
	.st0{fill:#2B2B2A;}
</style>
<g>
	<path class="st0" d="M294.6,98.9v99.3c0,3.2,2.6,5.8,5.8,5.8c3.2,0,5.8-2.6,5.8-5.8V150c4.2,8.6,8.3,14.2,9.9,16.2v32.9
		c0,3.2,2.6,5.8,5.8,5.8c3.2,0,5.8-2.6,5.8-5.8v-20.3c2.9,2.7,6.1,5.2,9.3,7.5v12.8c0,3.2,2.6,5.8,5.8,5.8c3.2,0,5.8-2.6,5.8-5.8
		v-5.7c2.5,1.3,5,2.5,7.6,3.6c12,5.1,25.1,7.9,38.9,7.9s26.9-2.8,38.9-7.9c12-5.1,22.7-12.4,31.8-21.4c2.3-2.3,2.3-5.9,0-8.2
		s-5.9-2.3-8.2,0l0,0c-8,8-17.5,14.5-28.1,18.9c-10.6,4.5-22.2,6.9-34.4,6.9c-12.2,0-23.8-2.5-34.4-6.9
		c-10.6-4.5-20.1-10.9-28.1-18.9c-2.5-2.4-4.8-5-6.9-7.8l-0.1-0.2c0,0-0.2-0.2-0.6-0.8c-3.3-4.3-17.4-24.5-18.2-53.9
		c-0.8-31.7-26-57.8-58.1-57.8s-58.1,26-58.1,58.1s26,58.1,58.1,58.1c0.1,0,0.2,0,0.3,0c3.5,0,7-0.4,10.5-1.1
		c3.7-0.7,7.3-1.8,10.8-3.2c3-1.2,4.4-4.6,3.2-7.6c-1.2-3-4.6-4.4-7.6-3.2c-2.8,1.1-5.7,2-8.6,2.5c-2.9,0.6-5.9,0.9-8.9,0.9
		c-0.1,0-0.1,0-0.2,0c-25.5-0.3-46-21-46-46.5c0-25.7,20.8-46.4,46.5-46.5C272.2,58.5,291,76,294.6,98.9 M44.2,105v94.1
		c0,3.2,2.6,5.8,5.8,5.8s5.8-2.6,5.8-5.8V105c0-25.7,20.8-46.4,46.5-46.5c25.7,0,46.4,20.8,46.5,46.5c0,0.4,0,0.7,0,1.1
		c0,0.1,0,0.2,0,0.3v92.8c0,3.2,2.6,5.8,5.8,5.8s5.8-2.6,5.8-5.8v-47.3c2.7,5.1,5.8,9.9,9.3,14.4v33c0,3.2,2.6,5.8,5.8,5.8
		s5.8-2.6,5.8-5.8V179c2.9,2.7,6,5.2,9.3,7.5v12.8c0,3.2,2.6,5.8,5.8,5.8s5.8-2.6,5.8-5.8v-5.7c13.9,7.3,29.7,11.5,46.5,11.5
		c0.2,0,0.4,0,0.6,0c6.1,0,12.2-0.7,18.2-1.8c6.3-1.2,12.5-3,18.5-5.5c3-1.2,4.4-4.6,3.2-7.6c-1.2-3-4.6-4.4-7.6-3.2l0,0
		c-5.3,2.2-10.8,3.8-16.4,4.8c-5.6,1.1-11.2,1.6-16.8,1.6l0,0c-0.1,0-0.3,0-0.5,0c-24.1-0.2-45.9-10-61.7-25.9
		c-16-16-25.9-38-25.9-62.4c0-32.1-26-58.1-58.1-58.1C70.2,46.9,44.2,72.9,44.2,105 M23.3,105v94.1c0,3.2,2.6,5.8,5.8,5.8
		s5.8-2.6,5.8-5.8V105c0.1-37.2,30.2-67.3,67.4-67.4c37.2,0.1,67.3,30.2,67.4,67.4l0,0c0,43.6,35.3,78.9,78.9,79l0,0l0,0h0.1
		c0.1,0,0.2,0,0.3,0c4.9,0,9.7-0.5,14.5-1.4c5-1,9.9-2.4,14.6-4.3c3-1.2,4.4-4.6,3.2-7.6c-1.2-3-4.6-4.4-7.6-3.2
		c-4.1,1.6-8.2,2.9-12.5,3.7s-8.6,1.2-12.9,1.2c-0.1,0-0.1,0-0.2,0c-37-0.3-66.8-30.3-66.9-67.3l0,0l0,0c0-14.4,4.5-27.8,12.2-38.7
		c12.2-17.3,32.3-28.7,55.2-28.7c37.2,0.1,67.3,30.2,67.4,67.4c0,0,0,0,0,0.1c0,2.7,0.1,5.4,0.4,8s0.7,5.3,1.2,7.8
		c0.5,2.6,1.2,5.1,1.9,7.6c0.8,2.5,1.7,4.9,2.7,7.3c1,2.4,2.1,4.7,3.3,6.9c1.2,2.2,2.5,4.4,4,6.5c1.4,2.1,2.9,4.1,4.6,6.1
		c1.6,1.9,3.3,3.8,5.1,5.6c1.8,1.8,3.7,3.5,5.6,5.1s4,3.1,6.1,4.5s4.3,2.7,6.5,4c2.2,1.2,4.5,2.3,6.9,3.3s4.8,1.9,7.3,2.7
		s5,1.4,7.6,1.9s5.2,0.9,7.9,1.2c2.7,0.3,5.3,0.4,8.1,0.4c2.7,0,5.4-0.1,8.1-0.4c2.6-0.3,5.3-0.7,7.8-1.2c2.6-0.5,5.1-1.2,7.6-1.9
		c2.5-0.8,4.9-1.7,7.3-2.7s4.7-2.1,6.9-3.3c2.2-1.2,4.4-2.5,6.5-4c2.1-1.4,4.1-2.9,6.1-4.6c1.9-1.6,3.8-3.3,5.6-5.1
		c2.3-2.3,2.3-5.9,0-8.2s-5.9-2.3-8.2,0l0,0c-1.5,1.5-3.1,3-4.8,4.3c-1.7,1.4-3.4,2.7-5.2,3.9c-1.8,1.2-3.7,2.3-5.6,3.4
		c-1.9,1-3.9,2-5.9,2.8c-2,0.9-4.1,1.6-6.2,2.3s-4.3,1.2-6.5,1.7c-2.2,0.4-4.4,0.8-6.7,1c-2.3,0.2-4.6,0.3-6.9,0.3s-4.6-0.1-6.9-0.3
		s-4.5-0.6-6.7-1c-2.2-0.5-4.3-1-6.5-1.7c-2.1-0.7-4.2-1.4-6.2-2.3c-2-0.8-4-1.8-5.9-2.8s-3.8-2.2-5.6-3.4c-1.8-1.2-3.5-2.5-5.2-3.9
		s-3.3-2.8-4.8-4.4c-1.5-1.5-3-3.1-4.3-4.8c-1.4-1.7-2.7-3.4-3.9-5.2c-1.2-1.8-2.3-3.7-3.4-5.6c-1-1.9-2-3.9-2.8-5.9
		c-0.9-2-1.6-4.1-2.3-6.2c-0.7-2.1-1.2-4.3-1.7-6.5c-0.4-2.2-0.8-4.4-1-6.7c-0.2-2.3-0.3-4.5-0.3-6.9l0,0c0,0,0,0,0-0.1
		c0-2.3,0.1-4.6,0.3-6.8c0.2-2.3,0.6-4.5,1-6.7s1-4.3,1.7-6.5c0.7-2.1,1.4-4.2,2.3-6.2c0.8-2,1.8-4,2.8-5.9s2.2-3.8,3.4-5.6
		c1.2-1.8,2.5-3.5,3.9-5.2s2.8-3.3,4.4-4.8c1.5-1.5,3.1-3,4.8-4.3c1.7-1.4,3.4-2.7,5.2-3.9c1.8-1.2,3.7-2.3,5.6-3.4
		c1.9-1,3.9-2,5.9-2.8s4.1-1.6,6.2-2.3s4.3-1.2,6.5-1.7c2.2-0.4,4.4-0.8,6.7-1c2.3-0.2,4.6-0.3,6.9-0.4c2.3,0,4.6,0.1,6.9,0.4
		c2.3,0.2,4.5,0.6,6.7,1s4.3,1,6.5,1.7c2.1,0.7,4.2,1.4,6.2,2.3c2,0.9,4,1.8,5.9,2.8s3.8,2.2,5.6,3.4c1.8,1.2,3.5,2.5,5.2,3.9
		s3.3,2.8,4.8,4.4c1.5,1.5,3,3.1,4.3,4.8c2,2.5,5.7,2.8,8.2,0.8c2.5-2,2.8-5.7,0.8-8.2c-1.6-2-3.3-3.8-5.1-5.6
		c-1.8-1.8-3.7-3.5-5.6-5.1s-4-3.1-6.1-4.5s-4.3-2.7-6.5-4c-2.2-1.2-4.5-2.3-6.9-3.3s-4.8-1.9-7.3-2.7c-2.5-0.8-5-1.4-7.6-1.9
		s-5.2-0.9-7.9-1.2c-2.6-0.3-5.3-0.4-8.1-0.4c-2.7,0-5.4,0.1-8.1,0.4c-2.6,0.3-5.3,0.7-7.8,1.2c-2.6,0.5-5.1,1.2-7.6,1.9
		c-2.5,0.8-4.9,1.7-7.3,2.7s-4.7,2.1-6.9,3.3c-2.2,1.2-4.4,2.5-6.5,4c-2.1,1.4-4.1,2.9-6.1,4.6c-2,1.6-3.8,3.3-5.6,5.1
		c-1.8,1.8-3.5,3.7-5.1,5.6c-1.6,1.9-3.1,4-4.5,6.1s-2.7,4.3-4,6.5c-1.2,2.2-2.3,4.5-3.3,6.9c-0.1,0.3-0.2,0.7-0.4,1.1
		C310.2,46.4,281.8,26,248.7,26C222,26,198.3,39.3,184,59.6c-3.4,4.8-6.3,10.1-8.6,15.7c-11.7-28.9-40-49.3-73.1-49.3
		C58.7,26,23.3,61.4,23.3,105 M349.9,94c0.6-2.4,1.4-4.8,2.3-7.1c2.3-5.6,5.8-10.6,10-14.8c4.2-4.2,9.2-7.6,14.8-10
		c5.6-2.3,11.7-3.6,18.1-3.7c6.4,0,12.5,1.3,18.1,3.7c2.1,0.9,4,1.9,5.9,3L349.9,94z M339.5,108c1,0.7,2.1,1,3.3,1
		c0.8,0,1.5-0.1,2.2-0.4l87.8-36.5c1.8-0.8,3.1-2.4,3.5-4.3c0.4-2-0.3-3.9-1.8-5.3c-4.9-4.6-10.6-8.3-16.9-11
		c-6.9-2.9-14.6-4.6-22.6-4.6s-15.7,1.6-22.6,4.6c-7,2.9-13.2,7.2-18.5,12.4c-5.3,5.3-9.5,11.5-12.4,18.5
		c-2.7,6.4-4.3,13.3-4.5,20.6C337,105,337.9,106.9,339.5,108 M487.2,66.1c-5.1-12-12.4-22.7-21.4-31.8c-9-9-19.8-16.4-31.8-21.4
		C422,7.8,408.9,5,395.1,5s-26.9,2.8-38.9,7.9s-22.7,12.4-31.8,21.4c-0.7,0.7-1.4,1.4-2,2.1c-9.2-10.6-32.5-31.2-73.7-31.3l0,0
		c-28.8,0-54.8,12.2-73,31.7c-10.1-9.9-36.3-31.5-73.3-31.7l0,0h-0.1C47.1,5.2,2.4,49.8,2.4,105v94.1c0,3.2,2.6,5.8,5.8,5.8
		s5.8-2.6,5.8-5.8V105c0-48.8,39.5-88.3,88.3-88.3h0.1l0,0c20.7,0,38,8.1,50.2,16.3c6.1,4.1,10.9,8.2,14.1,11.3
		c1.6,1.5,2.8,2.8,3.6,3.7s1.1,1.3,1.1,1.3c1.1,1.3,2.8,2.1,4.5,2.1s3.4-0.8,4.5-2.1c16.2-19.8,40.8-32.4,68.3-32.4
		c24.6,0.1,41.7,8.2,52.8,16.2c5.5,4,9.5,8.1,12.1,11c1.3,1.5,2.2,2.7,2.8,3.5c0.3,0.4,0.5,0.7,0.6,0.9s0.1,0.2,0.1,0.2
		c1,1.6,2.7,2.6,4.6,2.7c1.9,0.1,3.7-0.7,4.9-2.1c1.9-2.3,3.9-4.5,6-6.7c8-8,17.5-14.5,28.1-18.9c10.6-4.5,22.2-6.9,34.4-6.9
		c12.2,0,23.8,2.5,34.4,6.9c10.6,4.5,20.1,10.9,28.1,18.9c6.6,6.6,12.2,14.3,16.5,22.8L344.7,120c-1.4,0.6-2.5,1.8-3.1,3.2
		c-0.6,1.4-0.6,3,0,4.4c2.9,7,7.2,13.2,12.4,18.5c5.2,5.3,11.5,9.5,18.5,12.4s14.6,4.6,22.6,4.6l0,0c8,0,15.6-1.6,22.6-4.6
		c7-2.9,13.2-7.2,18.5-12.5c2.3-2.3,2.3-5.9,0-8.2s-5.9-2.3-8.2,0l0,0c-4.2,4.2-9.2,7.6-14.8,10c-5.6,2.3-11.7,3.6-18.1,3.6
		s-12.5-1.3-18.1-3.6s-10.6-5.8-14.8-10c-2.8-2.8-5.3-6.1-7.4-9.6L484,73.6c1.4-0.6,2.5-1.7,3.1-3.2
		C487.8,69.1,487.8,67.5,487.2,66.1"/>
</g>
</svg>
